# AST/ASF file generated using VICON BodyLanguage
# -----------------------------------------------
:version 1.10
:name VICON
:units
  mass 1.0
  length 0.45
  angle deg
:documentation
   .ast/.asf automatically generated from VICON data using
   VICON BodyBuilder and BodyLanguage model FoxedUp or BRILLIANT.MOD
:root
   order TX TY TZ RX RY RZ
   axis XYZ
   position 0 0 0  
   orientation 0 0 0 
:bonedata
  begin
     id 1 
     name lhipjoint
     direction 0.660183 -0.676772 0.325788 
     length 2.75133 
     axis 0 0 0  XYZ
  end
  begin
     id 2 
     name lfemur
     direction 0.34202 -0.939693 0  
     length 7.70317  
     axis 0 0 20  XYZ
    dof rx ry rz
    limits (-160.0 20.0)
           (-70.0 70.0)
           (-60.0 70.0)
  end
  begin
     id 3 
     name ltibia
     direction 0.342105 -0.939662 0   
     length 7.18701   
     axis 0 0 20   XYZ
    dof rx
    limits (-10.0 170.0)
  end
  begin
     id 4 
     name lfoot
     direction 0.14163 -0.389126 0.910232   
     length 2.41719   
     axis -90 7.62852e-016 20   XYZ
    dof rx rz
    limits (-45.0 90.0)
           (-70.0 20.0)
  end
  begin
     id 5 
     name ltoes
     direction 1.53533e-011 -4.21926e-011 1   
     length 1.18611   
     axis -90 7.62852e-016 20   XYZ
    dof rx
    limits (-90.0 20.0)
  end
  begin
     id 6 
     name rhipjoint
     direction -0.6658 -0.67229 0.323631   
     length 2.76968  
     axis 0 0 0  XYZ 
  end
  begin
     id 7 
     name rfemur
     direction -0.34202 -0.939693 0   
     length 7.92547   
     axis 0 0 -20   XYZ
    dof rx ry rz
    limits (-160.0 20.0)
           (-70.0 70.0)
           (-70.0 60.0)
  end
  begin
     id 8 
     name rtibia
     direction -0.342022 -0.939692 0   
     length 7.22641   
     axis 0 0 -20   XYZ
    dof rx
    limits (-10.0 170.0)
 end
 begin
     id 9 
     name rfoot
     direction -0.105675 -0.29034 0.951071   
     length 2.48149  
     axis -90 -7.62852e-016 -20   XYZ
    dof rx rz
    limits (-45.0 90.0)
           (-20.0 70.0)
  end
  begin
     id 10 
     name rtoes
     direction -1.5349e-011 -4.21859e-011 1   
     length 1.23343   
     axis -90 -7.62852e-016 -20   XYZ
    dof rx
    limits (-90.0 20.0)
  end
  begin
     id 11 
     name lowerback
     direction 0.0104173 0.993624 -0.112266   
     length 2.00527   
     axis 0 0 0   XYZ
    dof rx ry rz
    limits (-20.0 45.0)
           (-30.0 30.0)
           (-30.0 30.0)
  end
  begin
     id 12 
     name upperback
     direction 0.00733149 0.999856 -0.0152913   
     length 2.01385   
     axis 0 0 0   XYZ
    dof rx ry rz
    limits (-20.0 45.0)
           (-30.0 30.0)
           (-30.0 30.0)
  end
  begin
     id 13 
     name thorax
     direction 0.0026304 0.999318 0.036841   
     length 2.03734   
     axis 0 0 0   XYZ
    dof rx ry rz
    limits (-20.0 45.0)
           (-30.0 30.0)
           (-30.0 30.0)
  end
  begin
     id 14 
     name lowerneck
     direction 0.0293154 0.998757 0.0403082   
     length 1.65303   
     axis 0 0 0   XYZ
    dof rx ry rz
    limits (-20.0 45.0)
           (-30.0 30.0)
           (-30.0 30.0)
  end
  begin
     id 15 
     name upperneck
     direction -0.0376619 0.998184 -0.0470083   
     length 1.60926   
     axis 0 0 0   XYZ
    dof rx ry rz
    limits (-20.0 45.0)
           (-30.0 30.0)
           (-30.0 30.0)
  end
  begin
     id 16
     name head
     direction -0.0170133 0.999635 -0.0209778  
     length 1.73625  
     axis 0 0 0   XYZ
    dof rx ry rz
    limits (-20.0 45.0)
           (-30.0 30.0)
           (-30.0 30.0)
  end
  begin
     id 17 
     name lclavicle
     direction 0.919857 0.39181 -0.0186333  
     length 3.75313  
     axis 0 0 0   XYZ
    dof ry rz
    limits (-20.0 10.0)
           (0.0 20.0)
  end
  begin
     id 18 
     name lhumerus
     direction 1 -4.48988e-011 1.44029e-027   
     length 5.49313   
     axis 180 -30 -90   XYZ
    dof rx ry rz
    limits (-60.0 90.0)
           (-90.0 90.0)
           (-90.0 90.0)
  end
  begin
     id 19
     name lradius
     direction 1 -4.48924e-011 7.46281e-027   
     length 3.29037   
     axis 180 -30 -90   XYZ
    dof rx
    limits (-10.0 170.0)
  end
  begin
     id 20
     name lwrist
     direction 1 -4.48955e-011 2.19879e-026   
     length 1.64519   
     axis -1.34358e-014 90 90   XYZ
    dof ry
    limits (-180.0 0.0)
 end
  begin
     id 21 
     name lhand
     direction 1 -4.48978e-011 4.39747e-026   
     length 0.729656   
     axis -2.80598e-014 90 90   XYZ
    dof rx rz
    limits (-90.0 90.0)
           (-45.0 45.0)
  end
  begin
     id 22 
     name lfingers
     direction 1 -4.49071e-011 8.79411e-026   
     length 0.588268   
     axis -5.61193e-014 90 90   XYZ
    dof rx
    limits (0.0 90.0)
  end
  begin
     id 23
     name lthumb
     direction 0.707107 -6.34817e-011 0.707107   
     length 0.844638   
     axis -90 45 -9.86923e-015   XYZ
    dof rx rz
    limits (-45.0 45.0)
           (-45.0 45.0)
  end
  begin
     id 24 
     name rclavicle
     direction -0.919898 0.388279 0.0550233   
     length 3.7171  
     axis 0 0 0   XYZ 
    dof ry rz
    limits (-10.0 20.0)
           (-20.0 0.0)
  end
  begin
     id 25 
     name rhumerus
     direction -1 -4.48968e-011 9.98372e-028  
     length 5.23684   
     axis 180 30 90   XYZ
    dof rx ry rz
    limits (-90.0 60.0)
           (-90.0 90.0)
           (-90.0 90.0)
  end
  begin
     id 26 
     name rradius
     direction -1 -4.48956e-011 1.01023e-026   
     length 3.38251   
     axis 180 30 90   XYZ
    dof rx
    limits (-10.0 170.0)
  end
  begin
     id 27 
     name rwrist
     direction -1 -4.4892e-011 2.19886e-026   
     length 1.69126   
     axis -1.34358e-014 -90 -90   XYZ
    dof ry
    limits (-180.0 0.0)
  end
  begin
     id 28
     name rhand
     direction -1 -4.49024e-011 4.39727e-026   
     length 0.691454   
     axis -2.80598e-014 -90 -90   XYZ
    dof rx rz
    limits (-90.0 90.0)
           (-45.0 45.0)
  end
  begin
     id 29
     name rfingers
     direction -1 -4.49097e-011 8.79388e-026   
     length 0.557468   
     axis -5.61193e-014 -90 -90   XYZ
    dof rx
    limits (0.0 90.0)
  end
  begin
     id 30
     name rthumb
     direction -0.707107 -6.34938e-011 0.707107   
     length 0.800416   
     axis -90 -45 9.86923e-015   XYZ
    dof rx rz
    limits (-45.0 45.0)
           (-45.0 45.0)
  end
:hierarchy
  begin
    root lhipjoint rhipjoint lowerback
    lhipjoint lfemur
    lfemur ltibia
    ltibia lfoot
    lfoot ltoes
    rhipjoint rfemur
    rfemur rtibia
    rtibia rfoot
    rfoot rtoes
    lowerback upperback
    upperback thorax
    thorax lowerneck lclavicle rclavicle
    lowerneck upperneck
    upperneck head
    lclavicle lhumerus
    lhumerus lradius
    lradius lwrist
    lwrist lhand lthumb
    lhand lfingers
    rclavicle rhumerus
    rhumerus rradius
    rradius rwrist
    rwrist rhand rthumb
    rhand rfingers
  end

#!OML:ASF H:\BabyWalks\Project 1\Capture day 1\Session 1\baby.ASF
:FULLY-SPECIFIED
:DEGREES
179
root -30.2218 17.0549 -2.67927 -22.6126 81.8172 -30.0171
lowerback 15.5713 1.30054 -3.37088
upperback 5.55277 1.40198 -2.44621
thorax -2.84083 0.811194 -0.916626
lowerneck -1.26755 0.98263 2.97281
upperneck -11.5248 1.98493 3.38739
head -3.50753 0.856268 0.534059
rclavicle 1.98785e-014 3.18055e-015
rhumerus -50.9682 19.9477 -94.8346
rradius 48.3185
rwrist -1.65791
rhand -11.5242 -14.036
rfingers 7.12502
rthumb 14.5155 -43.5083
lclavicle 1.98785e-014 3.18055e-015
lhumerus -40.4517 -8.34408 76.9117
lradius 42.9915
lwrist -0.278464
lhand 0.0144869 11.2067
lfingers 7.12502
lthumb 25.6042 39.5055
rfemur 1.18321 8.64083 24.9933
rtibia 29.421
rfoot -26.3758 1.86298
rtoes -14.7866
lfemur -20.8036 -3.06378 -13.1615
ltibia 45.7025
lfoot -35.297 -9.44804
ltoes -1.41016
180
root -30.1387 17.0579 -2.69336 -21.8469 81.7103 -29.2531
lowerback 15.68 1.32566 -3.58311
upperback 5.60794 1.40222 -2.57852
thorax -2.84033 0.813748 -0.938482
lowerneck -1.22216 0.94166 3.01686
upperneck -11.6793 1.93513 3.31782
head -3.56884 0.829575 0.504943
rclavicle -7.95139e-016 1.74931e-014
rhumerus -51.0274 19.9479 -94.904
rradius 48.2129
rwrist -1.57477
rhand -11.5035 -14.0083
rfingers 7.12502
rthumb 14.5354 -43.4791
lclavicle -7.95139e-016 1.74931e-014
lhumerus -39.7613 -8.32598 76.5517
lradius 43.1396
lwrist -0.60092
lhand -0.0505584 11.2548
lfingers 7.12502
lthumb 25.5419 39.5625
rfemur 0.150514 8.21494 24.6382
rtibia 31.7767
rfoot -25.8969 2.94079
rtoes -16.1184
lfemur -20.3082 -3.12196 -13.3426
ltibia 45.4015
lfoot -35.4199 -9.30912
ltoes -1.30041
181
root -30.0547 17.0604 -2.70714 -21.1124 81.6301 -28.4913
lowerback 15.801 1.33838 -3.80776
upperback 5.68011 1.38574 -2.69363
thorax -2.82866 0.807995 -0.932434
lowerneck -1.17826 0.905982 3.07133
upperneck -11.8184 1.88625 3.20408
head -3.62393 0.804474 0.459468
rclavicle -2.06736e-014 1.59028e-014
rhumerus -51.0651 19.9299 -94.9234
rradius 48.0934
rwrist -1.46883
rhand -11.5045 -13.9656
rfingers 7.12502
rthumb 14.5345 -43.4365
lclavicle -2.06736e-014 1.59028e-014
lhumerus -39.0776 -8.32934 76.2337
lradius 43.3687
lwrist -0.915738
lhand -0.0951395 11.3468
lfingers 7.12502
lthumb 25.4992 39.6606
rfemur -0.912039 7.79246 24.2592
rtibia 34.2243
rfoot -25.2473 4.08584
rtoes -17.3135
lfemur -19.7716 -3.20615 -13.5413
ltibia 45.0776
lfoot -35.5364 -9.17399
ltoes -1.187
182
root -29.9707 17.0619 -2.72121 -20.2619 81.5499 -27.6082
lowerback 15.9345 1.34498 -4.03618
upperback 5.74812 1.35936 -2.80418
thorax -2.82777 0.79733 -0.918199
lowerneck -1.15049 0.876115 3.12328
upperneck -11.9174 1.83941 3.07296
head -3.66181 0.781679 0.408663
rclavicle 9.54166e-015 -4.77083e-014
rhumerus -51.0988 19.8888 -94.9065
rradius 47.9723
rwrist -1.36592
rhand -11.5032 -13.935
rfingers 7.12502
rthumb 14.5357 -43.4058
lclavicle 9.54166e-015 -4.77083e-014
lhumerus -38.4179 -8.37317 75.953
lradius 43.6742
lwrist -1.19823
lhand -0.146161 11.4566
lfingers 7.12502
lthumb 25.4504 39.7774
rfemur -2.02518 7.39658 23.8377
rtibia 36.7311
rfoot -24.3859 5.29797
rtoes -18.3387
lfemur -19.2269 -3.28738 -13.7665
ltibia 44.746
lfoot -35.6418 -9.04494
ltoes -1.04119
183
root -29.8863 17.0623 -2.73508 -19.3023 81.4838 -26.6038
lowerback 16.0829 1.34225 -4.27578
upperback 5.81402 1.3178 -2.91104
thorax -2.83664 0.7792 -0.891573
lowerneck -1.13334 0.852883 3.17561
upperneck -11.9805 1.79675 2.92784
head -3.68499 0.761894 0.353062
rclavicle -7.15625e-015 -6.04305e-014
rhumerus -51.1346 19.8142 -94.8501
rradius 47.8667
rwrist -1.31321
rhand -11.4708 -13.9169
rfingers 7.12502
rthumb 14.5669 -43.3854
lclavicle -7.15625e-015 -6.04305e-014
lhumerus -37.7874 -8.46628 75.7072
lradius 44.0653
lwrist -1.41345
lhand -0.214687 11.5833
lfingers 7.12502
lthumb 25.3847 39.9134
rfemur -3.16245 7.03386 23.3773
rtibia 39.2653
rfoot -23.3147 6.52159
rtoes -19.1257
lfemur -18.671 -3.36666 -14.0227
ltibia 44.4152
lfoot -35.7414 -8.93116
ltoes -0.852918
184
root -29.801 17.0596 -2.74805 -18.2587 81.4436 -25.4949
lowerback 16.2401 1.32902 -4.53472
upperback 5.88458 1.2593 -3.01149
thorax -2.84493 0.752643 -0.844365
lowerneck -1.1299 0.837517 3.22208
upperneck -12.01 1.76121 2.77926
head -3.69374 0.746511 0.297189
rclavicle -1.11319e-014 -3.02153e-014
rhumerus -51.1736 19.71 -94.7565
rradius 47.7834
rwrist -1.32513
rhand -11.4079 -13.9279
rfingers 7.12502
rthumb 14.6276 -43.392
lclavicle -1.11319e-014 -3.02153e-014
lhumerus -37.1826 -8.61599 75.4954
lradius 44.5433
lwrist -1.53064
lhand -0.297526 11.7117
lfingers 7.12502
lthumb 25.3054 40.0531
rfemur -4.28222 6.69615 22.891
rtibia 41.8024
rfoot -22.1062 7.68848
rtoes -19.5909
lfemur -18.0996 -3.43897 -14.3074
ltibia 44.0928
lfoot -35.8438 -8.84906
ltoes -0.631818
185
root -29.7155 17.0541 -2.76021 -17.0872 81.4265 -24.2494
lowerback 16.4141 1.30305 -4.80458
upperback 5.94669 1.17998 -3.11356
thorax -2.87006 0.715998 -0.789435
lowerneck -1.13721 0.831994 3.26196
upperneck -12.0056 1.73677 2.63681
head -3.68869 0.737145 0.24423
rclavicle -9.54166e-015 6.04305e-014
rhumerus -51.2336 19.579 -94.646
rradius 47.7146
rwrist -1.38103
rhand -11.3399 -13.9495
rfingers 7.12502
rthumb 14.6931 -43.4088
lclavicle -9.54166e-015 6.04305e-014
lhumerus -36.6165 -8.82808 75.3069
lradius 45.112
lwrist -1.51528
lhand -0.410064 11.8486
lfingers 7.12502
lthumb 25.1975 40.2052
rfemur -5.3917 6.38634 22.3779
rtibia 44.318
rfoot -20.8156 8.75248
rtoes -19.7368
lfemur -17.5276 -3.50163 -14.6234
ltibia 43.7772
lfoot -35.9464 -8.79125
ltoes -0.407028
